<svg xmlns="http://www.w3.org/2000/svg" width="280" height="200" viewBox="0 0 280 200">
  <defs>
    <linearGradient id="bg" x1="0" y1="0" x2="0" y2="1">
      <stop offset="0" stop-color="#EEF2FF"/>
      <stop offset="1" stop-color="#E0E7FF"/>
    </linearGradient>
    <linearGradient id="scr" x1="0" y1="0" x2="1" y2="1">
      <stop offset="0" stop-color="#FFFFFF"/>
      <stop offset="1" stop-color="#F8FAFC"/>
    </linearGradient>
    <linearGradient id="bar" x1="0" y1="1" x2="0" y2="0">
      <stop offset="0" stop-color="#4A6CF7"/>
      <stop offset="1" stop-color="#818CF8"/>
    </linearGradient>
  </defs>
  <rect width="280" height="200" rx="14" fill="url(#bg)"/>
  <!-- laptop base -->
  <path d="M58 176 H222 L232 190 H48 Z" fill="#CBD5E1"/>
  <rect x="44" y="188" width="192" height="5" rx="2.5" fill="#94A3B8"/>
  <!-- screen -->
  <rect x="52" y="28" width="176" height="148" rx="10" fill="#334155"/>
  <rect x="58" y="34" width="164" height="136" rx="7" fill="url(#scr)"/>
  <!-- title bar -->
  <circle cx="68" cy="44" r="2.5" fill="#F87171"/>
  <circle cx="77" cy="44" r="2.5" fill="#FBBF24"/>
  <circle cx="86" cy="44" r="2.5" fill="#34D399"/>
  <rect x="196" y="40" width="20" height="7" rx="3.5" fill="#E2E8F0"/>
  <!-- sidebar -->
  <rect x="64" y="54" width="34" height="110" rx="5" fill="#EEF2FF"/>
  <rect x="70" y="62" width="22" height="4" rx="2" fill="#4A6CF7"/>
  <rect x="70" y="72" width="22" height="4" rx="2" fill="#C7D2FE"/>
  <rect x="70" y="82" width="22" height="4" rx="2" fill="#C7D2FE"/>
  <rect x="70" y="92" width="22" height="4" rx="2" fill="#C7D2FE"/>
  <rect x="70" y="102" width="22" height="4" rx="2" fill="#C7D2FE"/>
  <circle cx="81" cy="150" r="9" fill="#4A6CF7"/>
  <circle cx="77" cy="148" r="3" fill="#fff"/>
  <path d="M79 152 l2 2 4-4" stroke="#fff" stroke-width="1.6" fill="none" stroke-linecap="round"/>
  <!-- stat cards -->
  <rect x="106" y="54" width="50" height="22" rx="4" fill="#EFF6FF"/>
  <rect x="110" y="59" width="14" height="3" rx="1.5" fill="#60A5FA"/>
  <rect x="110" y="65" width="22" height="6" rx="2" fill="#3B82F6"/>
  <rect x="162" y="54" width="50" height="22" rx="4" fill="#ECFDF5"/>
  <rect x="166" y="59" width="14" height="3" rx="1.5" fill="#34D399"/>
  <rect x="166" y="65" width="22" height="6" rx="2" fill="#10B981"/>
  <!-- bar chart -->
  <rect x="106" y="86" width="106" height="44" rx="5" fill="#F8FAFC" stroke="#E2E8F0"/>
  <rect x="114" y="108" width="12" height="18" rx="2" fill="url(#bar)"/>
  <rect x="132" y="100" width="12" height="26" rx="2" fill="url(#bar)"/>
  <rect x="150" y="94" width="12" height="32" rx="2" fill="url(#bar)"/>
  <rect x="168" y="104" width="12" height="22" rx="2" fill="url(#bar)"/>
  <rect x="186" y="98" width="12" height="28" rx="2" fill="url(#bar)"/>
  <!-- contact list -->
  <rect x="106" y="138" width="106" height="22" rx="5" fill="#fff" stroke="#E2E8F0"/>
  <circle cx="116" cy="149" r="6" fill="#FDE68A"/>
  <rect x="126" y="145" width="34" height="3" rx="1.5" fill="#64748B"/>
  <rect x="126" y="151" width="22" height="3" rx="1.5" fill="#CBD5E1"/>
  <circle cx="200" cy="149" r="5" fill="#34D399"/>
  <rect x="106" y="164" width="106" height="20" rx="5" fill="#fff" stroke="#E2E8F0"/>
  <circle cx="116" cy="174" r="6" fill="#A5B4FC"/>
  <rect x="126" y="170" width="30" height="3" rx="1.5" fill="#64748B"/>
  <rect x="126" y="176" width="20" height="3" rx="1.5" fill="#CBD5E1"/>
  <circle cx="200" cy="174" r="5" fill="#F87171"/>
  <!-- floating badge -->
  <g transform="translate(216,40)">
    <circle r="16" fill="#4A6CF7"/>
    <path d="M-6 0 l4 4 8-9" stroke="#fff" stroke-width="3" fill="none" stroke-linecap="round" stroke-linejoin="round"/>
  </g>
  <!-- decorative dots -->
  <circle cx="34" cy="58" r="3" fill="#C7D2FE"/>
  <circle cx="248" cy="150" r="4" fill="#FBCFE8"/>
  <circle cx="40" cy="160" r="2.5" fill="#FDE68A"/>
</svg>
